<svg width="61" height="61" viewBox="0 0 61 61" fill="none" xmlns="http://www.w3.org/2000/svg">
<g filter="url(#filter0_d_222_231)">
<circle cx="30.8185" cy="26.1818" r="24.6818" stroke="white" stroke-width="3"/>
<g clip-path="url(#clip0_222_231)">
<path d="M26.5301 26.6256C26.5301 24.0115 28.6487 21.8918 31.2628 21.8918C33.8769 21.8918 35.9966 24.0115 35.9966 26.6256C35.9966 29.2397 33.8769 31.3594 31.2628 31.3594C28.6487 31.3594 26.5301 29.2397 26.5301 26.6256ZM23.9711 26.6256C23.9711 30.6528 27.2356 33.9173 31.2628 33.9173C35.2901 33.9173 38.5545 30.6528 38.5545 26.6256C38.5545 22.5984 35.2901 19.3339 31.2628 19.3339C27.2356 19.3339 23.9711 22.5984 23.9711 26.6256ZM37.1391 19.0448C37.1391 19.9854 37.9019 20.7493 38.8436 20.7493C39.7841 20.7493 40.5481 19.9854 40.5481 19.0448C40.5481 18.1043 39.7853 17.3415 38.8436 17.3415C37.9019 17.3415 37.1391 18.1043 37.1391 19.0448ZM25.5253 38.1843C24.1409 38.1212 23.3884 37.8906 22.8883 37.6957C22.2253 37.4376 21.7527 37.1302 21.2549 36.6335C20.7583 36.1368 20.4497 35.6642 20.1928 35.0013C19.9978 34.5012 19.7672 33.7487 19.7041 32.3642C19.6353 30.8673 19.6215 30.4177 19.6215 26.6256C19.6215 22.8335 19.6364 22.385 19.7041 20.887C19.7672 19.5025 19.9989 18.7512 20.1928 18.2499C20.4508 17.587 20.7583 17.1144 21.2549 16.6166C21.7516 16.1199 22.2242 15.8113 22.8883 15.5544C23.3884 15.3594 24.1409 15.1289 25.5253 15.0658C27.0222 14.9969 27.4719 14.9832 31.2628 14.9832C35.0549 14.9832 35.5034 14.9981 37.0014 15.0658C38.3859 15.1289 39.1372 15.3606 39.6385 15.5544C40.3015 15.8113 40.774 16.1199 41.2719 16.6166C41.7685 17.1132 42.0759 17.587 42.334 18.2499C42.529 18.7501 42.7596 19.5025 42.8226 20.887C42.8915 22.385 42.9052 22.8335 42.9052 26.6256C42.9052 30.4166 42.8915 30.8662 42.8226 32.3642C42.7596 33.7487 42.5279 34.5012 42.334 35.0013C42.0759 35.6642 41.7685 36.1368 41.2719 36.6335C40.7752 37.1302 40.3015 37.4376 39.6385 37.6957C39.1384 37.8906 38.3859 38.1212 37.0014 38.1843C35.5046 38.2531 35.0549 38.2669 31.2628 38.2669C27.4719 38.2669 27.0222 38.2531 25.5253 38.1843ZM25.4083 12.5113C23.8965 12.5801 22.8642 12.8199 21.9615 13.1709C21.0278 13.5333 20.2363 14.0197 19.446 14.8088C18.6569 15.598 18.1705 16.3895 17.8081 17.3243C17.4571 18.227 17.2173 19.2593 17.1485 20.7711C17.0786 22.2852 17.0625 22.7693 17.0625 26.6256C17.0625 30.4819 17.0786 30.966 17.1485 32.4801C17.2173 33.9919 17.4571 35.0242 17.8081 35.9269C18.1705 36.8606 18.6557 37.6532 19.446 38.4424C20.2352 39.2315 21.0267 39.7167 21.9615 40.0803C22.8654 40.4313 23.8965 40.6711 25.4083 40.7399C26.9236 40.8087 27.4065 40.8259 31.2628 40.8259C35.1203 40.8259 35.6032 40.8099 37.1173 40.7399C38.6291 40.6711 39.6614 40.4313 40.5641 40.0803C41.4978 39.7167 42.2893 39.2315 43.0796 38.4424C43.8687 37.6532 44.3539 36.8606 44.7175 35.9269C45.0685 35.0242 45.3094 33.9919 45.3771 32.4801C45.4459 30.9648 45.462 30.4819 45.462 26.6256C45.462 22.7693 45.4459 22.2852 45.3771 20.7711C45.3083 19.2593 45.0685 18.227 44.7175 17.3243C44.3539 16.3906 43.8687 15.5991 43.0796 14.8088C42.2904 14.0197 41.4978 13.5333 40.5653 13.1709C39.6614 12.8199 38.6291 12.579 37.1184 12.5113C35.6043 12.4425 35.1203 12.4253 31.264 12.4253C27.4065 12.4253 26.9236 12.4414 25.4083 12.5113Z" fill="white"/>
</g>
</g>
<defs>
<filter id="filter0_d_222_231" x="0.636719" y="0" width="60.3633" height="60.3636" filterUnits="userSpaceOnUse" color-interpolation-filters="sRGB">
<feFlood flood-opacity="0" result="BackgroundImageFix"/>
<feColorMatrix in="SourceAlpha" type="matrix" values="0 0 0 0 0 0 0 0 0 0 0 0 0 0 0 0 0 0 127 0" result="hardAlpha"/>
<feOffset dy="4"/>
<feGaussianBlur stdDeviation="2"/>
<feComposite in2="hardAlpha" operator="out"/>
<feColorMatrix type="matrix" values="0 0 0 0 0 0 0 0 0 0 0 0 0 0 0 0 0 0 0.25 0"/>
<feBlend mode="normal" in2="BackgroundImageFix" result="effect1_dropShadow_222_231"/>
<feBlend mode="normal" in="SourceGraphic" in2="effect1_dropShadow_222_231" result="shape"/>
</filter>
<clipPath id="clip0_222_231">
<rect width="28.4006" height="28.4006" fill="white" transform="translate(17.0625 12.4253)"/>
</clipPath>
</defs>
</svg>
