<svg width="53" height="53" viewBox="0 0 53 53" fill="none" xmlns="http://www.w3.org/2000/svg">
<g clip-path="url(#clip0_222_228)">
<path d="M26.2717 52.3636C11.8717 52.3636 0.0898438 40.5818 0.0898438 26.1818C0.0898438 11.7818 11.8717 0 26.2717 0C40.6717 0 52.4535 11.7818 52.4535 26.1818C52.4535 40.5818 40.6717 52.3636 26.2717 52.3636ZM26.2717 2.61818C13.3117 2.61818 2.70803 13.2218 2.70803 26.1818C2.70803 39.1418 13.3117 49.7455 26.2717 49.7455C39.2317 49.7455 49.8353 39.1418 49.8353 26.1818C49.8353 13.2218 39.2317 2.61818 26.2717 2.61818Z" fill="white"/>
<path fill-rule="evenodd" clip-rule="evenodd" d="M21.9515 31.5491L34.1261 20.5527C34.6497 20.0291 33.9952 19.8982 33.3406 20.2909L18.417 29.7164L12.0024 27.7527C10.5624 27.36 10.5624 26.3127 12.2643 25.6582L37.5297 15.9709C38.7079 15.4473 39.7552 16.2327 39.3624 18.0654L35.0424 38.3564C34.7806 39.7964 33.8643 40.1891 32.6861 39.5345L26.1406 34.6909L22.9988 37.7018C22.6061 38.0945 22.0824 38.0945 22.0824 37.7018L21.9515 31.5491Z" fill="white"/>
</g>
<defs>
<clipPath id="clip0_222_228">
<rect width="52.3636" height="52.3636" fill="white" transform="translate(0.0898438)"/>
</clipPath>
</defs>
</svg>
