<svg width="53" height="53" viewBox="0 0 53 53" fill="none" xmlns="http://www.w3.org/2000/svg">
<g clip-path="url(#clip0_222_222)">
<path fill-rule="evenodd" clip-rule="evenodd" d="M39.7497 19.3475C39.383 19.0761 38.0652 19.0761 36.7609 19.0761C35.4292 19.1032 34.0973 19.1032 33.7847 19.2256C33.5002 19.3341 32.8614 20.8831 32.0328 22.4723C31.0809 24.2667 29.9267 26.0056 29.1926 25.9774C28.2282 25.9774 28.4595 23.0293 28.5272 20.8424C28.5403 19.4153 28.3095 18.953 28.1058 18.8316C27.6029 18.4779 26.2174 18.1391 26.2174 18.1391C26.2174 18.1391 22.0589 17.826 21.4753 19.6195C22.2767 19.7284 23.6356 19.4831 23.1057 25.0401C23.0651 25.3126 22.4669 27.5948 20.5375 24.5102C20.0482 23.7364 18.201 19.1032 17.5487 19.0761C15.4145 19.0349 13.2959 18.94 12.5628 19.3475C11.8693 19.7555 13.4861 22.9344 16.2174 27.2013C18.4314 30.7064 20.7823 33.4243 24.8585 34.1032C25.6328 34.1854 27.617 34.2658 28.2558 33.9677C28.6763 33.7634 28.1465 30.7476 29.6006 30.448C30.2394 30.3262 32.7249 33.6008 33.6623 33.9677C34.2344 34.1985 35.4838 34.2934 36.7609 34.2386C38.1469 34.1984 39.7221 34.3751 39.8716 33.4242C40.2119 31.3452 35.6745 28.6269 35.5516 27.3502C35.4427 26.4264 37.2096 24.7283 38.1058 23.4236C39.2193 21.8474 40.4432 19.9456 39.7497 19.3475Z" fill="white"/>
<circle cx="26.1818" cy="26.1818" r="24.6818" stroke="white" stroke-width="3"/>
</g>
<defs>
<clipPath id="clip0_222_222">
<rect width="52.3636" height="52.3636" fill="white"/>
</clipPath>
</defs>
</svg>
