<svg width="53" height="53" viewBox="0 0 53 53" fill="none" xmlns="http://www.w3.org/2000/svg">
<path fill-rule="evenodd" clip-rule="evenodd" d="M50.2913 25.7876C50.2913 38.4664 39.9343 48.7443 27.156 48.7443C23.247 48.7505 19.3999 47.7679 15.9727 45.8879L3.16406 49.9581L7.34006 37.6411C5.16366 34.0707 4.01487 29.969 4.02021 25.7876C4.02021 13.1087 14.3783 2.83081 27.1566 2.83081C39.9349 2.83081 50.2913 13.1087 50.2913 25.7876ZM27.156 6.48684C16.4299 6.48684 7.70504 15.1452 7.70504 25.7876C7.70504 30.0107 9.08168 33.9217 11.4103 37.1039L8.98009 44.2714L16.455 41.8957C19.633 43.9836 23.3535 45.0937 27.156 45.0883C37.8812 45.0883 46.607 36.4305 46.607 25.7881C46.607 15.1457 37.8817 6.48684 27.156 6.48684ZM38.8389 31.0747C38.6959 30.8406 38.3184 30.6993 37.7518 30.4181C37.1842 30.1369 34.3953 28.7749 33.8769 28.588C33.3564 28.4005 32.9778 28.3057 32.5998 28.8692C32.2222 29.4326 31.1351 30.6993 30.8037 31.0747C30.4733 31.4507 30.1429 31.4978 29.5752 31.2161C29.0087 30.9349 27.1812 30.3406 25.0149 28.4235C23.3293 26.9322 22.1909 25.0911 21.86 24.5272C21.5296 23.9642 21.8254 23.66 22.1087 23.3799C22.3642 23.1275 22.6763 22.7227 22.9596 22.3944C23.2439 22.0655 23.3382 21.8315 23.5262 21.4555C23.7163 21.0801 23.6215 20.7517 23.4791 20.4695C23.3377 20.1883 22.2024 17.4193 21.7301 16.2925C21.2578 15.1666 20.786 15.3541 20.4545 15.3541C20.1241 15.3541 19.7455 15.307 19.3675 15.307C18.9894 15.307 18.3747 15.4478 17.8547 16.0107C17.3352 16.5742 15.8706 17.9356 15.8706 20.7041C15.8706 23.4731 17.9018 26.1483 18.1861 26.5233C18.4694 26.8982 22.1082 32.765 27.8734 35.0182C33.6397 37.2709 33.6397 36.5195 34.6796 36.4258C35.7185 36.332 38.0341 35.0648 38.5079 33.751C38.9797 32.4362 38.9797 31.3093 38.8389 31.0747Z" fill="white"/>
</svg>
